# xmcd
#
# Track frame offsets: 
#        150
#        26157
#        43180
#        63387
#        84327
#        116927
#        144265
#        165007
#        184705
#        201830
#        222810
#        243555
#        261807
#        289677
#        310740
#
# Disc length: 4399 seconds
#
# Revision: 3
# Processed by: cddbd v1.5.2PL0 Copyright (c) Steve Scherf et al.
# Submitted via: ExactAudioCopy v0.99pb5
#
DISCID=d3112d0f
DTITLE=Air Supply - Now And Forever-Greatest Hits Live
DYEAR=1995
DGENRE=Easy Listening
TTITLE0=Making Love Out Of Nothing At All
TTITLE1=Chances
TTITLE2=Lost In Love
TTITLE3=Here I Am
TTITLE4=Sweet Dreams
TTITLE5=Someone
TTITLE6=I Want To Give It All
TTITLE7=Always
TTITLE8=Unchained Melody
TTITLE9=Without You
TTITLE10=The One That You Love
TTITLE11=Goodbye
TTITLE12=All Out Of Love
TTITLE13=The Way I Feel
TTITLE14=Now And Forever
EXTD=YEAR: 1995
EXTT0=
EXTT1=
EXTT2=
EXTT3=
EXTT4=
EXTT5=
EXTT6=
EXTT7=
EXTT8=
EXTT9=
EXTT10=
EXTT11=
EXTT12=
EXTT13=
EXTT14=
PLAYORDER=
